<mxfile host="app.diagrams.net" agent="Mozilla/5.0 (Windows NT 10.0; Win64; x64) AppleWebKit/537.36 (KHTML, like Gecko) Chrome/129.0.0.0 Safari/537.36" version="24.7.17">
  <diagram name="Page-1" id="gvOllTH9LuBP_hq7dgmy">
    <mxGraphModel dx="3120" dy="1750" grid="1" gridSize="10" guides="1" tooltips="1" connect="1" arrows="1" fold="1" page="1" pageScale="1" pageWidth="850" pageHeight="1100" math="0" shadow="0">
      <root>
        <mxCell id="0" />
        <mxCell id="1" parent="0" />
        <mxCell id="PiIeFLG2h4lBq93euPG2-6" value="Start" style="ellipse;whiteSpace=wrap;html=1;" parent="1" vertex="1">
          <mxGeometry x="440" y="230" width="120" height="80" as="geometry" />
        </mxCell>
        <mxCell id="PiIeFLG2h4lBq93euPG2-7" value="" style="endArrow=classic;html=1;rounded=0;" parent="1" edge="1">
          <mxGeometry width="50" height="50" relative="1" as="geometry">
            <mxPoint x="499" y="310" as="sourcePoint" />
            <mxPoint x="499.33" y="410" as="targetPoint" />
          </mxGeometry>
        </mxCell>
        <mxCell id="PiIeFLG2h4lBq93euPG2-8" value="&lt;div&gt;Output :&lt;/div&gt;M&lt;span style=&quot;background-color: initial;&quot;&gt;enu&lt;/span&gt;&lt;div&gt;&lt;div&gt;1. Daftar Akun&lt;/div&gt;&lt;div&gt;2. Login&lt;/div&gt;&lt;div&gt;3. Exit&lt;/div&gt;&lt;/div&gt;" style="shape=parallelogram;perimeter=parallelogramPerimeter;whiteSpace=wrap;html=1;fixedSize=1;size=20;" parent="1" vertex="1">
          <mxGeometry x="430" y="410" width="140" height="80" as="geometry" />
        </mxCell>
        <mxCell id="PiIeFLG2h4lBq93euPG2-9" value="" style="endArrow=classic;html=1;rounded=0;" parent="1" edge="1">
          <mxGeometry width="50" height="50" relative="1" as="geometry">
            <mxPoint x="499.33" y="490" as="sourcePoint" />
            <mxPoint x="499.83" y="570" as="targetPoint" />
          </mxGeometry>
        </mxCell>
        <mxCell id="PiIeFLG2h4lBq93euPG2-10" value="Input Opsi" style="shape=parallelogram;perimeter=parallelogramPerimeter;whiteSpace=wrap;html=1;fixedSize=1;" parent="1" vertex="1">
          <mxGeometry x="440" y="570" width="120" height="60" as="geometry" />
        </mxCell>
        <mxCell id="PiIeFLG2h4lBq93euPG2-11" value="" style="endArrow=classic;html=1;rounded=0;" parent="1" edge="1">
          <mxGeometry width="50" height="50" relative="1" as="geometry">
            <mxPoint x="500.33" y="630" as="sourcePoint" />
            <mxPoint x="500.33" y="690" as="targetPoint" />
          </mxGeometry>
        </mxCell>
        <mxCell id="PiIeFLG2h4lBq93euPG2-12" value="Opsi = 1" style="rhombus;whiteSpace=wrap;html=1;" parent="1" vertex="1">
          <mxGeometry x="461" y="690" width="80" height="80" as="geometry" />
        </mxCell>
        <mxCell id="PiIeFLG2h4lBq93euPG2-13" value="" style="endArrow=classic;html=1;rounded=0;" parent="1" edge="1">
          <mxGeometry width="50" height="50" relative="1" as="geometry">
            <mxPoint x="500.33" y="770" as="sourcePoint" />
            <mxPoint x="500.33" y="810" as="targetPoint" />
          </mxGeometry>
        </mxCell>
        <mxCell id="PiIeFLG2h4lBq93euPG2-14" value="Input :&lt;div&gt;Username&lt;/div&gt;&lt;div&gt;Password&lt;/div&gt;&lt;div&gt;Role&lt;/div&gt;" style="shape=parallelogram;perimeter=parallelogramPerimeter;whiteSpace=wrap;html=1;fixedSize=1;" parent="1" vertex="1">
          <mxGeometry x="441" y="810" width="120" height="60" as="geometry" />
        </mxCell>
        <mxCell id="PiIeFLG2h4lBq93euPG2-15" value="" style="endArrow=none;html=1;rounded=0;" parent="1" edge="1">
          <mxGeometry width="50" height="50" relative="1" as="geometry">
            <mxPoint x="500.33" y="930" as="sourcePoint" />
            <mxPoint x="500.33" y="870" as="targetPoint" />
          </mxGeometry>
        </mxCell>
        <mxCell id="PiIeFLG2h4lBq93euPG2-16" value="" style="endArrow=none;html=1;rounded=0;" parent="1" edge="1">
          <mxGeometry width="50" height="50" relative="1" as="geometry">
            <mxPoint x="401" y="930" as="sourcePoint" />
            <mxPoint x="501" y="930" as="targetPoint" />
          </mxGeometry>
        </mxCell>
        <mxCell id="PiIeFLG2h4lBq93euPG2-17" style="edgeStyle=orthogonalEdgeStyle;rounded=0;orthogonalLoop=1;jettySize=auto;html=1;exitX=0.5;exitY=1;exitDx=0;exitDy=0;" parent="1" source="PiIeFLG2h4lBq93euPG2-6" target="PiIeFLG2h4lBq93euPG2-6" edge="1">
          <mxGeometry relative="1" as="geometry" />
        </mxCell>
        <mxCell id="PiIeFLG2h4lBq93euPG2-18" value="" style="endArrow=none;html=1;rounded=0;" parent="1" edge="1">
          <mxGeometry width="50" height="50" relative="1" as="geometry">
            <mxPoint x="400" y="930" as="sourcePoint" />
            <mxPoint x="400" y="450" as="targetPoint" />
          </mxGeometry>
        </mxCell>
        <mxCell id="PiIeFLG2h4lBq93euPG2-19" value="" style="endArrow=classic;html=1;rounded=0;" parent="1" target="PiIeFLG2h4lBq93euPG2-8" edge="1">
          <mxGeometry width="50" height="50" relative="1" as="geometry">
            <mxPoint x="400" y="450" as="sourcePoint" />
            <mxPoint x="450" y="400" as="targetPoint" />
          </mxGeometry>
        </mxCell>
        <mxCell id="PiIeFLG2h4lBq93euPG2-20" value="False" style="text;html=1;align=center;verticalAlign=middle;resizable=0;points=[];autosize=1;strokeColor=none;fillColor=none;" parent="1" vertex="1">
          <mxGeometry x="586" y="708" width="50" height="30" as="geometry" />
        </mxCell>
        <mxCell id="PiIeFLG2h4lBq93euPG2-21" value="" style="endArrow=none;html=1;rounded=0;" parent="1" edge="1">
          <mxGeometry width="50" height="50" relative="1" as="geometry">
            <mxPoint x="541" y="730" as="sourcePoint" />
            <mxPoint x="701" y="730" as="targetPoint" />
          </mxGeometry>
        </mxCell>
        <mxCell id="PiIeFLG2h4lBq93euPG2-22" value="" style="endArrow=classic;html=1;rounded=0;" parent="1" edge="1">
          <mxGeometry width="50" height="50" relative="1" as="geometry">
            <mxPoint x="701" y="730" as="sourcePoint" />
            <mxPoint x="701" y="770" as="targetPoint" />
          </mxGeometry>
        </mxCell>
        <mxCell id="gMm3dsdUHFEkHUgvY5EG-31" style="edgeStyle=orthogonalEdgeStyle;rounded=0;orthogonalLoop=1;jettySize=auto;html=1;exitX=1;exitY=0.5;exitDx=0;exitDy=0;entryX=0.5;entryY=0;entryDx=0;entryDy=0;" parent="1" source="PiIeFLG2h4lBq93euPG2-23" target="gMm3dsdUHFEkHUgvY5EG-30" edge="1">
          <mxGeometry relative="1" as="geometry" />
        </mxCell>
        <mxCell id="PiIeFLG2h4lBq93euPG2-23" value="Opsi = 2" style="rhombus;whiteSpace=wrap;html=1;" parent="1" vertex="1">
          <mxGeometry x="661" y="770" width="80" height="80" as="geometry" />
        </mxCell>
        <mxCell id="PiIeFLG2h4lBq93euPG2-24" value="" style="endArrow=classic;html=1;rounded=0;" parent="1" edge="1">
          <mxGeometry width="50" height="50" relative="1" as="geometry">
            <mxPoint x="701" y="850" as="sourcePoint" />
            <mxPoint x="701" y="890" as="targetPoint" />
          </mxGeometry>
        </mxCell>
        <mxCell id="PiIeFLG2h4lBq93euPG2-25" value="Input :&lt;div&gt;Username&lt;/div&gt;&lt;div&gt;Password&lt;/div&gt;" style="shape=parallelogram;perimeter=parallelogramPerimeter;whiteSpace=wrap;html=1;fixedSize=1;" parent="1" vertex="1">
          <mxGeometry x="636" y="890" width="120" height="60" as="geometry" />
        </mxCell>
        <mxCell id="PiIeFLG2h4lBq93euPG2-26" value="" style="endArrow=classic;html=1;rounded=0;" parent="1" edge="1">
          <mxGeometry width="50" height="50" relative="1" as="geometry">
            <mxPoint x="701" y="950" as="sourcePoint" />
            <mxPoint x="701" y="1010" as="targetPoint" />
          </mxGeometry>
        </mxCell>
        <mxCell id="PiIeFLG2h4lBq93euPG2-27" value="Username&lt;div&gt;dan&lt;/div&gt;&lt;div&gt;Password&lt;/div&gt;" style="rhombus;whiteSpace=wrap;html=1;" parent="1" vertex="1">
          <mxGeometry x="645" y="1009" width="110" height="120" as="geometry" />
        </mxCell>
        <mxCell id="PiIeFLG2h4lBq93euPG2-28" value="" style="endArrow=classic;html=1;rounded=0;" parent="1" edge="1">
          <mxGeometry width="50" height="50" relative="1" as="geometry">
            <mxPoint x="700" y="1130" as="sourcePoint" />
            <mxPoint x="700" y="1210" as="targetPoint" />
          </mxGeometry>
        </mxCell>
        <mxCell id="PiIeFLG2h4lBq93euPG2-29" value="" style="endArrow=none;html=1;rounded=0;" parent="1" edge="1">
          <mxGeometry width="50" height="50" relative="1" as="geometry">
            <mxPoint x="401" y="1070" as="sourcePoint" />
            <mxPoint x="401" y="930" as="targetPoint" />
          </mxGeometry>
        </mxCell>
        <mxCell id="PiIeFLG2h4lBq93euPG2-30" value="" style="endArrow=none;html=1;rounded=0;" parent="1" edge="1">
          <mxGeometry width="50" height="50" relative="1" as="geometry">
            <mxPoint x="401" y="1070" as="sourcePoint" />
            <mxPoint x="646" y="1070" as="targetPoint" />
          </mxGeometry>
        </mxCell>
        <mxCell id="PiIeFLG2h4lBq93euPG2-31" value="penjual?" style="rhombus;whiteSpace=wrap;html=1;" parent="1" vertex="1">
          <mxGeometry x="660" y="1210" width="80" height="80" as="geometry" />
        </mxCell>
        <mxCell id="PiIeFLG2h4lBq93euPG2-32" value="" style="endArrow=classic;html=1;rounded=0;" parent="1" edge="1">
          <mxGeometry width="50" height="50" relative="1" as="geometry">
            <mxPoint x="700" y="1290" as="sourcePoint" />
            <mxPoint x="700" y="1370" as="targetPoint" />
          </mxGeometry>
        </mxCell>
        <mxCell id="PiIeFLG2h4lBq93euPG2-33" value="&lt;font style=&quot;font-size: 11px;&quot;&gt;Output :&lt;/font&gt;&lt;div style=&quot;font-size: 11px;&quot;&gt;&lt;font style=&quot;font-size: 11px;&quot;&gt;Menu penjual&lt;/font&gt;&lt;/div&gt;&lt;div style=&quot;font-size: 11px;&quot;&gt;&lt;font style=&quot;font-size: 11px;&quot;&gt;1. Tambah Konser&lt;/font&gt;&lt;/div&gt;&lt;div style=&quot;font-size: 11px;&quot;&gt;&lt;font style=&quot;font-size: 11px;&quot;&gt;2. Lihat Konser&lt;/font&gt;&lt;/div&gt;&lt;div style=&quot;font-size: 11px;&quot;&gt;&lt;font style=&quot;font-size: 11px;&quot;&gt;3. Edit Konser&lt;/font&gt;&lt;/div&gt;&lt;div style=&quot;font-size: 11px;&quot;&gt;&lt;font style=&quot;font-size: 11px;&quot;&gt;4. Hapus Konser&lt;/font&gt;&lt;/div&gt;&lt;div style=&quot;font-size: 11px;&quot;&gt;&lt;font style=&quot;font-size: 11px;&quot;&gt;5. Lihat Statistika&lt;/font&gt;&lt;/div&gt;&lt;div style=&quot;font-size: 11px;&quot;&gt;&lt;font style=&quot;font-size: 11px;&quot;&gt;6. Exit&lt;/font&gt;&lt;/div&gt;" style="shape=parallelogram;perimeter=parallelogramPerimeter;whiteSpace=wrap;html=1;fixedSize=1;" parent="1" vertex="1">
          <mxGeometry x="590" y="1370" width="220" height="110" as="geometry" />
        </mxCell>
        <mxCell id="PiIeFLG2h4lBq93euPG2-34" value="" style="endArrow=classic;html=1;rounded=0;" parent="1" edge="1">
          <mxGeometry width="50" height="50" relative="1" as="geometry">
            <mxPoint x="700" y="1480" as="sourcePoint" />
            <mxPoint x="700" y="1530" as="targetPoint" />
          </mxGeometry>
        </mxCell>
        <mxCell id="PiIeFLG2h4lBq93euPG2-35" value="&lt;div&gt;Input opsi :&lt;/div&gt;" style="shape=parallelogram;perimeter=parallelogramPerimeter;whiteSpace=wrap;html=1;fixedSize=1;" parent="1" vertex="1">
          <mxGeometry x="635" y="1530" width="130" height="40" as="geometry" />
        </mxCell>
        <mxCell id="PiIeFLG2h4lBq93euPG2-36" value="" style="endArrow=classic;html=1;rounded=0;" parent="1" edge="1">
          <mxGeometry width="50" height="50" relative="1" as="geometry">
            <mxPoint x="700" y="1570" as="sourcePoint" />
            <mxPoint x="700" y="1610" as="targetPoint" />
          </mxGeometry>
        </mxCell>
        <mxCell id="PiIeFLG2h4lBq93euPG2-37" value="Opsi = 1" style="rhombus;whiteSpace=wrap;html=1;" parent="1" vertex="1">
          <mxGeometry x="661" y="1611" width="80" height="80" as="geometry" />
        </mxCell>
        <mxCell id="PiIeFLG2h4lBq93euPG2-38" value="" style="endArrow=classic;html=1;rounded=0;" parent="1" edge="1">
          <mxGeometry width="50" height="50" relative="1" as="geometry">
            <mxPoint x="700.89" y="1690" as="sourcePoint" />
            <mxPoint x="700" y="1730" as="targetPoint" />
          </mxGeometry>
        </mxCell>
        <mxCell id="PiIeFLG2h4lBq93euPG2-42" value="" style="endArrow=none;html=1;rounded=0;" parent="1" edge="1">
          <mxGeometry width="50" height="50" relative="1" as="geometry">
            <mxPoint x="510" y="1860" as="sourcePoint" />
            <mxPoint x="510" y="1420" as="targetPoint" />
          </mxGeometry>
        </mxCell>
        <mxCell id="PiIeFLG2h4lBq93euPG2-43" value="" style="endArrow=classic;html=1;rounded=0;entryX=0.045;entryY=0.45;entryDx=0;entryDy=0;entryPerimeter=0;" parent="1" target="PiIeFLG2h4lBq93euPG2-33" edge="1">
          <mxGeometry width="50" height="50" relative="1" as="geometry">
            <mxPoint x="510" y="1420" as="sourcePoint" />
            <mxPoint x="560" y="1380" as="targetPoint" />
            <Array as="points">
              <mxPoint x="550" y="1420" />
            </Array>
          </mxGeometry>
        </mxCell>
        <mxCell id="PiIeFLG2h4lBq93euPG2-44" value="" style="endArrow=none;html=1;rounded=0;" parent="1" edge="1">
          <mxGeometry width="50" height="50" relative="1" as="geometry">
            <mxPoint x="740" y="1650" as="sourcePoint" />
            <mxPoint x="940" y="1650" as="targetPoint" />
          </mxGeometry>
        </mxCell>
        <mxCell id="PiIeFLG2h4lBq93euPG2-45" value="" style="endArrow=classic;html=1;rounded=0;" parent="1" edge="1">
          <mxGeometry width="50" height="50" relative="1" as="geometry">
            <mxPoint x="940" y="1650" as="sourcePoint" />
            <mxPoint x="940" y="1690" as="targetPoint" />
          </mxGeometry>
        </mxCell>
        <mxCell id="PiIeFLG2h4lBq93euPG2-46" value="Opsi = 2" style="rhombus;whiteSpace=wrap;html=1;" parent="1" vertex="1">
          <mxGeometry x="900" y="1690" width="80" height="80" as="geometry" />
        </mxCell>
        <mxCell id="PiIeFLG2h4lBq93euPG2-47" value="" style="endArrow=classic;html=1;rounded=0;" parent="1" edge="1">
          <mxGeometry width="50" height="50" relative="1" as="geometry">
            <mxPoint x="940" y="1770" as="sourcePoint" />
            <mxPoint x="940" y="1850" as="targetPoint" />
          </mxGeometry>
        </mxCell>
        <mxCell id="PiIeFLG2h4lBq93euPG2-48" value="Input :&lt;div&gt;&lt;br&gt;&lt;/div&gt;&lt;div&gt;Status Bayar&lt;/div&gt;" style="shape=parallelogram;perimeter=parallelogramPerimeter;whiteSpace=wrap;html=1;fixedSize=1;" parent="1" vertex="1">
          <mxGeometry x="870" y="1850" width="140" height="70" as="geometry" />
        </mxCell>
        <mxCell id="PiIeFLG2h4lBq93euPG2-50" value="Hasil Input masuk ke data" style="rounded=1;whiteSpace=wrap;html=1;" parent="1" vertex="1">
          <mxGeometry x="640" y="1870" width="120" height="60" as="geometry" />
        </mxCell>
        <mxCell id="PiIeFLG2h4lBq93euPG2-51" value="" style="endArrow=none;html=1;rounded=0;exitX=0.5;exitY=1;exitDx=0;exitDy=0;" parent="1" source="gMm3dsdUHFEkHUgvY5EG-5" edge="1">
          <mxGeometry width="50" height="50" relative="1" as="geometry">
            <mxPoint x="939.76" y="2010" as="sourcePoint" />
            <mxPoint x="940" y="2050" as="targetPoint" />
          </mxGeometry>
        </mxCell>
        <mxCell id="PiIeFLG2h4lBq93euPG2-52" value="" style="endArrow=none;html=1;rounded=0;" parent="1" edge="1">
          <mxGeometry width="50" height="50" relative="1" as="geometry">
            <mxPoint x="510" y="2050" as="sourcePoint" />
            <mxPoint x="940" y="2050" as="targetPoint" />
          </mxGeometry>
        </mxCell>
        <mxCell id="PiIeFLG2h4lBq93euPG2-53" value="" style="endArrow=none;html=1;rounded=0;" parent="1" edge="1">
          <mxGeometry width="50" height="50" relative="1" as="geometry">
            <mxPoint x="510" y="2050" as="sourcePoint" />
            <mxPoint x="510" y="1860" as="targetPoint" />
          </mxGeometry>
        </mxCell>
        <mxCell id="PiIeFLG2h4lBq93euPG2-54" value="" style="endArrow=none;html=1;rounded=0;" parent="1" edge="1">
          <mxGeometry width="50" height="50" relative="1" as="geometry">
            <mxPoint x="980" y="1730" as="sourcePoint" />
            <mxPoint x="1140" y="1730" as="targetPoint" />
          </mxGeometry>
        </mxCell>
        <mxCell id="PiIeFLG2h4lBq93euPG2-55" value="" style="endArrow=classic;html=1;rounded=0;" parent="1" edge="1">
          <mxGeometry width="50" height="50" relative="1" as="geometry">
            <mxPoint x="1140" y="1730" as="sourcePoint" />
            <mxPoint x="1140" y="1770" as="targetPoint" />
          </mxGeometry>
        </mxCell>
        <mxCell id="PiIeFLG2h4lBq93euPG2-56" style="edgeStyle=orthogonalEdgeStyle;rounded=0;orthogonalLoop=1;jettySize=auto;html=1;" parent="1" source="PiIeFLG2h4lBq93euPG2-57" edge="1">
          <mxGeometry relative="1" as="geometry">
            <mxPoint x="1139.9999999999998" y="1930" as="targetPoint" />
          </mxGeometry>
        </mxCell>
        <mxCell id="PiIeFLG2h4lBq93euPG2-57" value="Opsi = 3" style="rhombus;whiteSpace=wrap;html=1;" parent="1" vertex="1">
          <mxGeometry x="1100" y="1770" width="80" height="80" as="geometry" />
        </mxCell>
        <mxCell id="PiIeFLG2h4lBq93euPG2-58" value="Input :&lt;div&gt;Judul Konser&lt;/div&gt;&lt;div&gt;Lokasi Konser&lt;/div&gt;&lt;div&gt;Hari/Tanggal Konser&lt;/div&gt;&lt;div&gt;Harga Tiket&lt;/div&gt;" style="shape=parallelogram;perimeter=parallelogramPerimeter;whiteSpace=wrap;html=1;fixedSize=1;" parent="1" vertex="1">
          <mxGeometry x="1070" y="2022" width="140" height="70" as="geometry" />
        </mxCell>
        <mxCell id="PiIeFLG2h4lBq93euPG2-59" value="" style="endArrow=classic;html=1;rounded=0;" parent="1" edge="1">
          <mxGeometry width="50" height="50" relative="1" as="geometry">
            <mxPoint x="1140" y="2092" as="sourcePoint" />
            <mxPoint x="1140" y="2122" as="targetPoint" />
          </mxGeometry>
        </mxCell>
        <mxCell id="PiIeFLG2h4lBq93euPG2-60" value="Update data sesuai dengan input" style="rounded=1;whiteSpace=wrap;html=1;" parent="1" vertex="1">
          <mxGeometry x="1080" y="2122" width="120" height="60" as="geometry" />
        </mxCell>
        <mxCell id="PiIeFLG2h4lBq93euPG2-61" value="Input :&lt;div style=&quot;font-size: 9px;&quot;&gt;Data Baru Yang Mau Di Update&lt;/div&gt;" style="shape=parallelogram;perimeter=parallelogramPerimeter;whiteSpace=wrap;html=1;fixedSize=1;" parent="1" vertex="1">
          <mxGeometry x="1080" y="1930" width="120" height="60" as="geometry" />
        </mxCell>
        <mxCell id="PiIeFLG2h4lBq93euPG2-62" value="" style="endArrow=classic;html=1;rounded=0;entryX=0.5;entryY=0;entryDx=0;entryDy=0;" parent="1" target="PiIeFLG2h4lBq93euPG2-58" edge="1">
          <mxGeometry width="50" height="50" relative="1" as="geometry">
            <mxPoint x="1140" y="1990" as="sourcePoint" />
            <mxPoint x="1140" y="2020" as="targetPoint" />
          </mxGeometry>
        </mxCell>
        <mxCell id="PiIeFLG2h4lBq93euPG2-63" value="" style="endArrow=none;html=1;rounded=0;" parent="1" edge="1">
          <mxGeometry width="50" height="50" relative="1" as="geometry">
            <mxPoint x="1139.67" y="2182" as="sourcePoint" />
            <mxPoint x="1140" y="2220" as="targetPoint" />
          </mxGeometry>
        </mxCell>
        <mxCell id="PiIeFLG2h4lBq93euPG2-64" value="" style="endArrow=none;html=1;rounded=0;" parent="1" edge="1">
          <mxGeometry width="50" height="50" relative="1" as="geometry">
            <mxPoint x="510" y="2220" as="sourcePoint" />
            <mxPoint x="1140" y="2220" as="targetPoint" />
          </mxGeometry>
        </mxCell>
        <mxCell id="PiIeFLG2h4lBq93euPG2-65" value="" style="endArrow=none;html=1;rounded=0;" parent="1" edge="1">
          <mxGeometry width="50" height="50" relative="1" as="geometry">
            <mxPoint x="510" y="2220" as="sourcePoint" />
            <mxPoint x="510" y="2050" as="targetPoint" />
          </mxGeometry>
        </mxCell>
        <mxCell id="PiIeFLG2h4lBq93euPG2-66" value="" style="endArrow=none;html=1;rounded=0;" parent="1" edge="1">
          <mxGeometry width="50" height="50" relative="1" as="geometry">
            <mxPoint x="1180" y="1810" as="sourcePoint" />
            <mxPoint x="1420" y="1810" as="targetPoint" />
          </mxGeometry>
        </mxCell>
        <mxCell id="PiIeFLG2h4lBq93euPG2-67" value="" style="endArrow=classic;html=1;rounded=0;entryX=0.5;entryY=0;entryDx=0;entryDy=0;" parent="1" target="PiIeFLG2h4lBq93euPG2-68" edge="1">
          <mxGeometry width="50" height="50" relative="1" as="geometry">
            <mxPoint x="1420" y="1810" as="sourcePoint" />
            <mxPoint x="1420" y="1830" as="targetPoint" />
          </mxGeometry>
        </mxCell>
        <mxCell id="PiIeFLG2h4lBq93euPG2-68" value="Opsi = 4" style="rhombus;whiteSpace=wrap;html=1;" parent="1" vertex="1">
          <mxGeometry x="1380" y="1840" width="80" height="80" as="geometry" />
        </mxCell>
        <mxCell id="PiIeFLG2h4lBq93euPG2-69" value="" style="endArrow=classic;html=1;rounded=0;" parent="1" edge="1">
          <mxGeometry width="50" height="50" relative="1" as="geometry">
            <mxPoint x="1419.55" y="1920" as="sourcePoint" />
            <mxPoint x="1420" y="2000" as="targetPoint" />
          </mxGeometry>
        </mxCell>
        <mxCell id="PiIeFLG2h4lBq93euPG2-70" value="Input :&lt;div&gt;Pilih data yang mau dihapus&lt;/div&gt;" style="shape=parallelogram;perimeter=parallelogramPerimeter;whiteSpace=wrap;html=1;fixedSize=1;" parent="1" vertex="1">
          <mxGeometry x="1345" y="2000" width="150" height="70" as="geometry" />
        </mxCell>
        <mxCell id="PiIeFLG2h4lBq93euPG2-71" value="" style="endArrow=classic;html=1;rounded=0;" parent="1" edge="1">
          <mxGeometry width="50" height="50" relative="1" as="geometry">
            <mxPoint x="1420" y="2070" as="sourcePoint" />
            <mxPoint x="1420" y="2130" as="targetPoint" />
          </mxGeometry>
        </mxCell>
        <mxCell id="PiIeFLG2h4lBq93euPG2-72" value="Hapus data yang dipilih" style="rounded=1;whiteSpace=wrap;html=1;" parent="1" vertex="1">
          <mxGeometry x="1360" y="2130" width="120" height="60" as="geometry" />
        </mxCell>
        <mxCell id="PiIeFLG2h4lBq93euPG2-73" value="" style="endArrow=none;html=1;rounded=0;" parent="1" edge="1">
          <mxGeometry width="50" height="50" relative="1" as="geometry">
            <mxPoint x="790" y="2220" as="sourcePoint" />
            <mxPoint x="1420" y="2220" as="targetPoint" />
          </mxGeometry>
        </mxCell>
        <mxCell id="PiIeFLG2h4lBq93euPG2-74" value="" style="endArrow=none;html=1;rounded=0;" parent="1" edge="1">
          <mxGeometry width="50" height="50" relative="1" as="geometry">
            <mxPoint x="1420" y="2190" as="sourcePoint" />
            <mxPoint x="1420.16" y="2220" as="targetPoint" />
          </mxGeometry>
        </mxCell>
        <mxCell id="PiIeFLG2h4lBq93euPG2-75" value="" style="endArrow=none;html=1;rounded=0;" parent="1" edge="1">
          <mxGeometry width="50" height="50" relative="1" as="geometry">
            <mxPoint x="1460" y="1880" as="sourcePoint" />
            <mxPoint x="1590" y="1880" as="targetPoint" />
          </mxGeometry>
        </mxCell>
        <mxCell id="PiIeFLG2h4lBq93euPG2-76" value="" style="endArrow=classic;html=1;rounded=0;entryX=0.5;entryY=0;entryDx=0;entryDy=0;" parent="1" edge="1" target="PiIeFLG2h4lBq93euPG2-77">
          <mxGeometry width="50" height="50" relative="1" as="geometry">
            <mxPoint x="1590" y="1880" as="sourcePoint" />
            <mxPoint x="1660" y="1910" as="targetPoint" />
          </mxGeometry>
        </mxCell>
        <mxCell id="fPAqoZodzVnTv5eMYKu1-5" value="" style="edgeStyle=orthogonalEdgeStyle;rounded=0;orthogonalLoop=1;jettySize=auto;html=1;" edge="1" parent="1" source="PiIeFLG2h4lBq93euPG2-77" target="fPAqoZodzVnTv5eMYKu1-4">
          <mxGeometry relative="1" as="geometry" />
        </mxCell>
        <mxCell id="PiIeFLG2h4lBq93euPG2-77" value="Opsi = 5" style="rhombus;whiteSpace=wrap;html=1;" parent="1" vertex="1">
          <mxGeometry x="1550" y="1920" width="80" height="80" as="geometry" />
        </mxCell>
        <mxCell id="PiIeFLG2h4lBq93euPG2-80" value="" style="endArrow=classic;html=1;rounded=0;entryX=0.5;entryY=0;entryDx=0;entryDy=0;exitX=1;exitY=0.5;exitDx=0;exitDy=0;" parent="1" edge="1" target="fPAqoZodzVnTv5eMYKu1-7" source="PiIeFLG2h4lBq93euPG2-77">
          <mxGeometry width="50" height="50" relative="1" as="geometry">
            <mxPoint x="1720" y="1960" as="sourcePoint" />
            <mxPoint x="1820" y="1970" as="targetPoint" />
            <Array as="points">
              <mxPoint x="1720" y="1960" />
            </Array>
          </mxGeometry>
        </mxCell>
        <mxCell id="PiIeFLG2h4lBq93euPG2-81" value="Output :&lt;div&gt;Menu tidak valid&lt;/div&gt;" style="shape=parallelogram;perimeter=parallelogramPerimeter;whiteSpace=wrap;html=1;fixedSize=1;" parent="1" vertex="1">
          <mxGeometry x="1790" y="2005" width="130" height="50" as="geometry" />
        </mxCell>
        <mxCell id="PiIeFLG2h4lBq93euPG2-84" value="" style="endArrow=none;html=1;rounded=0;exitX=1;exitY=0.5;exitDx=0;exitDy=0;" parent="1" edge="1" source="PiIeFLG2h4lBq93euPG2-81">
          <mxGeometry width="50" height="50" relative="1" as="geometry">
            <mxPoint x="1940" y="2040" as="sourcePoint" />
            <mxPoint x="1940" y="1420" as="targetPoint" />
            <Array as="points">
              <mxPoint x="1940" y="2030" />
              <mxPoint x="1940" y="1700" />
            </Array>
          </mxGeometry>
        </mxCell>
        <mxCell id="PiIeFLG2h4lBq93euPG2-85" value="" style="endArrow=classic;html=1;rounded=0;entryX=1;entryY=0.5;entryDx=0;entryDy=0;" parent="1" target="PiIeFLG2h4lBq93euPG2-33" edge="1">
          <mxGeometry width="50" height="50" relative="1" as="geometry">
            <mxPoint x="1940" y="1425" as="sourcePoint" />
            <mxPoint x="2000" y="1360" as="targetPoint" />
          </mxGeometry>
        </mxCell>
        <mxCell id="PiIeFLG2h4lBq93euPG2-86" value="" style="endArrow=none;html=1;rounded=0;exitX=0.5;exitY=1;exitDx=0;exitDy=0;" parent="1" edge="1" source="fPAqoZodzVnTv5eMYKu1-7">
          <mxGeometry width="50" height="50" relative="1" as="geometry">
            <mxPoint x="1930" y="2190" as="sourcePoint" />
            <mxPoint x="2020" y="2130" as="targetPoint" />
            <Array as="points">
              <mxPoint x="1720" y="2130" />
            </Array>
          </mxGeometry>
        </mxCell>
        <mxCell id="PiIeFLG2h4lBq93euPG2-87" value="" style="endArrow=none;html=1;rounded=0;" parent="1" edge="1">
          <mxGeometry width="50" height="50" relative="1" as="geometry">
            <mxPoint x="2020" y="2130" as="sourcePoint" />
            <mxPoint x="2020" y="450" as="targetPoint" />
          </mxGeometry>
        </mxCell>
        <mxCell id="PiIeFLG2h4lBq93euPG2-88" value="" style="endArrow=classic;html=1;rounded=0;entryX=1;entryY=0.5;entryDx=0;entryDy=0;" parent="1" target="PiIeFLG2h4lBq93euPG2-8" edge="1">
          <mxGeometry width="50" height="50" relative="1" as="geometry">
            <mxPoint x="2020" y="450" as="sourcePoint" />
            <mxPoint x="1840" y="410" as="targetPoint" />
          </mxGeometry>
        </mxCell>
        <mxCell id="gMm3dsdUHFEkHUgvY5EG-5" value="&lt;div&gt;Output :&lt;/div&gt;&lt;div&gt;Judul Konser&lt;/div&gt;&lt;div&gt;Lokasi Konser&lt;/div&gt;&lt;div&gt;Hari/Tanggal Konser&lt;/div&gt;&lt;div&gt;Harga Tiket&lt;/div&gt;" style="shape=parallelogram;perimeter=parallelogramPerimeter;whiteSpace=wrap;html=1;fixedSize=1;" parent="1" vertex="1">
          <mxGeometry x="870" y="1850" width="140" height="70" as="geometry" />
        </mxCell>
        <mxCell id="gMm3dsdUHFEkHUgvY5EG-9" style="edgeStyle=orthogonalEdgeStyle;rounded=0;orthogonalLoop=1;jettySize=auto;html=1;exitX=0.5;exitY=1;exitDx=0;exitDy=0;entryX=0.5;entryY=0;entryDx=0;entryDy=0;" parent="1" source="gMm3dsdUHFEkHUgvY5EG-6" target="PiIeFLG2h4lBq93euPG2-50" edge="1">
          <mxGeometry relative="1" as="geometry" />
        </mxCell>
        <mxCell id="gMm3dsdUHFEkHUgvY5EG-6" value="Input :&lt;div&gt;Judul Konser :&lt;/div&gt;&lt;div&gt;Lokasi Konser :&lt;/div&gt;&lt;div&gt;Hari/Tanggal Konser :&lt;/div&gt;&lt;div&gt;Harga Tiket :&lt;/div&gt;" style="shape=parallelogram;perimeter=parallelogramPerimeter;whiteSpace=wrap;html=1;fixedSize=1;" parent="1" vertex="1">
          <mxGeometry x="630" y="1730" width="140" height="70" as="geometry" />
        </mxCell>
        <mxCell id="gMm3dsdUHFEkHUgvY5EG-12" value="" style="endArrow=none;html=1;rounded=0;entryX=0.5;entryY=1;entryDx=0;entryDy=0;" parent="1" target="PiIeFLG2h4lBq93euPG2-50" edge="1">
          <mxGeometry width="50" height="50" relative="1" as="geometry">
            <mxPoint x="510" y="1959.37" as="sourcePoint" />
            <mxPoint x="940" y="1959.37" as="targetPoint" />
            <Array as="points">
              <mxPoint x="700" y="1960" />
            </Array>
          </mxGeometry>
        </mxCell>
        <mxCell id="gMm3dsdUHFEkHUgvY5EG-14" value="" style="endArrow=classic;html=1;rounded=0;exitX=1;exitY=0.5;exitDx=0;exitDy=0;entryX=0;entryY=0.5;entryDx=0;entryDy=0;" parent="1" source="PiIeFLG2h4lBq93euPG2-31" target="gMm3dsdUHFEkHUgvY5EG-15" edge="1">
          <mxGeometry width="50" height="50" relative="1" as="geometry">
            <mxPoint x="700" y="1170" as="sourcePoint" />
            <mxPoint x="840" y="1210" as="targetPoint" />
            <Array as="points">
              <mxPoint x="770" y="1250" />
            </Array>
          </mxGeometry>
        </mxCell>
        <mxCell id="gMm3dsdUHFEkHUgvY5EG-15" value="pembeli?" style="rhombus;whiteSpace=wrap;html=1;" parent="1" vertex="1">
          <mxGeometry x="1250" y="1210" width="80" height="80" as="geometry" />
        </mxCell>
        <mxCell id="gMm3dsdUHFEkHUgvY5EG-16" value="&lt;font style=&quot;font-size: 11px;&quot;&gt;Output :&lt;/font&gt;&lt;div style=&quot;font-size: 11px;&quot;&gt;&lt;font style=&quot;font-size: 11px;&quot;&gt;Menu pembeli&lt;/font&gt;&lt;/div&gt;&lt;div style=&quot;font-size: 11px;&quot;&gt;&lt;font style=&quot;font-size: 11px;&quot;&gt;1. Beli Tiket Konser&lt;/font&gt;&lt;/div&gt;&lt;div style=&quot;font-size: 11px;&quot;&gt;&lt;font style=&quot;font-size: 11px;&quot;&gt;2. Lihat Tiket Konser Yang Sudah Di Beli&lt;/font&gt;&lt;/div&gt;&lt;div style=&quot;font-size: 11px;&quot;&gt;&lt;font style=&quot;font-size: 11px;&quot;&gt;6. Exit&lt;/font&gt;&lt;/div&gt;" style="shape=parallelogram;perimeter=parallelogramPerimeter;whiteSpace=wrap;html=1;fixedSize=1;" parent="1" vertex="1">
          <mxGeometry x="1232.5" y="1440" width="195" height="80" as="geometry" />
        </mxCell>
        <mxCell id="gMm3dsdUHFEkHUgvY5EG-17" value="" style="endArrow=classic;html=1;rounded=0;exitX=1;exitY=0.5;exitDx=0;exitDy=0;entryX=0.5;entryY=0;entryDx=0;entryDy=0;" parent="1" source="gMm3dsdUHFEkHUgvY5EG-15" target="gMm3dsdUHFEkHUgvY5EG-16" edge="1">
          <mxGeometry width="50" height="50" relative="1" as="geometry">
            <mxPoint x="870" y="1340" as="sourcePoint" />
            <mxPoint x="920" y="1290" as="targetPoint" />
          </mxGeometry>
        </mxCell>
        <mxCell id="gMm3dsdUHFEkHUgvY5EG-18" value="Opsi = 1" style="rhombus;whiteSpace=wrap;html=1;" parent="1" vertex="1">
          <mxGeometry x="1300" y="1611" width="60" height="50" as="geometry" />
        </mxCell>
        <mxCell id="gMm3dsdUHFEkHUgvY5EG-20" value="&lt;span style=&quot;font-size: 8px;&quot;&gt;Input :&lt;/span&gt;&lt;div&gt;&lt;span style=&quot;font-size: 8px;&quot;&gt;Pilih Konser Yang Tersedia&lt;/span&gt;&lt;/div&gt;" style="shape=parallelogram;perimeter=parallelogramPerimeter;whiteSpace=wrap;html=1;fixedSize=1;" parent="1" vertex="1">
          <mxGeometry x="1283.75" y="1690" width="92.5" height="50" as="geometry" />
        </mxCell>
        <mxCell id="gMm3dsdUHFEkHUgvY5EG-21" value="" style="endArrow=classic;html=1;rounded=0;exitX=0.5;exitY=1;exitDx=0;exitDy=0;entryX=0.5;entryY=0;entryDx=0;entryDy=0;" parent="1" source="gMm3dsdUHFEkHUgvY5EG-18" target="gMm3dsdUHFEkHUgvY5EG-20" edge="1">
          <mxGeometry width="50" height="50" relative="1" as="geometry">
            <mxPoint x="1060" y="1830" as="sourcePoint" />
            <mxPoint x="1110" y="1780" as="targetPoint" />
          </mxGeometry>
        </mxCell>
        <mxCell id="gMm3dsdUHFEkHUgvY5EG-22" value="" style="endArrow=classic;html=1;rounded=0;exitX=0.428;exitY=1.048;exitDx=0;exitDy=0;exitPerimeter=0;entryX=0;entryY=0.5;entryDx=0;entryDy=0;" parent="1" target="gMm3dsdUHFEkHUgvY5EG-16" edge="1">
          <mxGeometry width="50" height="50" relative="1" as="geometry">
            <mxPoint x="1323.3399999999997" y="1739.4" as="sourcePoint" />
            <mxPoint x="1242.5000000000002" y="1516" as="targetPoint" />
            <Array as="points">
              <mxPoint x="1323" y="1756" />
              <mxPoint x="1180" y="1756" />
              <mxPoint x="1180" y="1480" />
            </Array>
          </mxGeometry>
        </mxCell>
        <mxCell id="gMm3dsdUHFEkHUgvY5EG-23" value="" style="endArrow=classic;html=1;rounded=0;exitX=1;exitY=0.5;exitDx=0;exitDy=0;" parent="1" edge="1" target="gMm3dsdUHFEkHUgvY5EG-24">
          <mxGeometry width="50" height="50" relative="1" as="geometry">
            <mxPoint x="1360.0000000000002" y="1635.9999999999998" as="sourcePoint" />
            <mxPoint x="1490" y="1660" as="targetPoint" />
            <Array as="points">
              <mxPoint x="1488" y="1636" />
            </Array>
          </mxGeometry>
        </mxCell>
        <mxCell id="gMm3dsdUHFEkHUgvY5EG-27" style="edgeStyle=orthogonalEdgeStyle;rounded=0;orthogonalLoop=1;jettySize=auto;html=1;exitX=0.5;exitY=1;exitDx=0;exitDy=0;entryX=0.5;entryY=0;entryDx=0;entryDy=0;" parent="1" source="gMm3dsdUHFEkHUgvY5EG-24" target="gMm3dsdUHFEkHUgvY5EG-25" edge="1">
          <mxGeometry relative="1" as="geometry" />
        </mxCell>
        <mxCell id="gMm3dsdUHFEkHUgvY5EG-29" style="edgeStyle=orthogonalEdgeStyle;rounded=0;orthogonalLoop=1;jettySize=auto;html=1;exitX=1;exitY=0.5;exitDx=0;exitDy=0;" parent="1" source="gMm3dsdUHFEkHUgvY5EG-24" edge="1">
          <mxGeometry relative="1" as="geometry">
            <mxPoint x="1720" y="1960" as="targetPoint" />
          </mxGeometry>
        </mxCell>
        <mxCell id="gMm3dsdUHFEkHUgvY5EG-24" value="Opsi = 2" style="rhombus;whiteSpace=wrap;html=1;" parent="1" vertex="1">
          <mxGeometry x="1457.87" y="1661" width="60" height="50" as="geometry" />
        </mxCell>
        <mxCell id="gMm3dsdUHFEkHUgvY5EG-25" value="&lt;span style=&quot;font-size: 8px;&quot;&gt;Output:&amp;nbsp;&lt;/span&gt;&lt;div&gt;&lt;span style=&quot;font-size: 8px;&quot;&gt;Tiket yang telah di beli&lt;/span&gt;&lt;/div&gt;" style="shape=parallelogram;perimeter=parallelogramPerimeter;whiteSpace=wrap;html=1;fixedSize=1;" parent="1" vertex="1">
          <mxGeometry x="1430" y="1747" width="115.75" height="50" as="geometry" />
        </mxCell>
        <mxCell id="gMm3dsdUHFEkHUgvY5EG-28" value="" style="endArrow=none;html=1;rounded=0;entryX=0;entryY=0.5;entryDx=0;entryDy=0;" parent="1" target="gMm3dsdUHFEkHUgvY5EG-25" edge="1">
          <mxGeometry width="50" height="50" relative="1" as="geometry">
            <mxPoint x="1180" y="1757.5" as="sourcePoint" />
            <mxPoint x="1413" y="1772.5" as="targetPoint" />
            <Array as="points">
              <mxPoint x="1180" y="1772.5" />
            </Array>
          </mxGeometry>
        </mxCell>
        <mxCell id="gMm3dsdUHFEkHUgvY5EG-33" value="" style="edgeStyle=orthogonalEdgeStyle;rounded=0;orthogonalLoop=1;jettySize=auto;html=1;" parent="1" source="gMm3dsdUHFEkHUgvY5EG-30" target="gMm3dsdUHFEkHUgvY5EG-32" edge="1">
          <mxGeometry relative="1" as="geometry" />
        </mxCell>
        <mxCell id="gMm3dsdUHFEkHUgvY5EG-30" value="Opsi = 3" style="rhombus;whiteSpace=wrap;html=1;" parent="1" vertex="1">
          <mxGeometry x="850" y="830" width="80" height="80" as="geometry" />
        </mxCell>
        <mxCell id="gMm3dsdUHFEkHUgvY5EG-32" value="End" style="ellipse;whiteSpace=wrap;html=1;" parent="1" vertex="1">
          <mxGeometry x="835" y="950" width="110" height="80" as="geometry" />
        </mxCell>
        <mxCell id="NDp6dvyjHiP-cYrajNbm-1" value="" style="endArrow=none;html=1;rounded=0;exitX=1;exitY=0.5;exitDx=0;exitDy=0;" parent="1" source="gMm3dsdUHFEkHUgvY5EG-16" edge="1">
          <mxGeometry width="50" height="50" relative="1" as="geometry">
            <mxPoint x="1640" y="1560" as="sourcePoint" />
            <mxPoint x="1940" y="1480" as="targetPoint" />
          </mxGeometry>
        </mxCell>
        <mxCell id="fPAqoZodzVnTv5eMYKu1-1" value="&lt;div&gt;Input opsi :&lt;/div&gt;" style="shape=parallelogram;perimeter=parallelogramPerimeter;whiteSpace=wrap;html=1;fixedSize=1;" vertex="1" parent="1">
          <mxGeometry x="1265" y="1550" width="130" height="40" as="geometry" />
        </mxCell>
        <mxCell id="fPAqoZodzVnTv5eMYKu1-2" value="" style="endArrow=classic;html=1;rounded=0;exitX=0.53;exitY=1.046;exitDx=0;exitDy=0;exitPerimeter=0;entryX=0.557;entryY=-0.033;entryDx=0;entryDy=0;entryPerimeter=0;" edge="1" parent="1" source="gMm3dsdUHFEkHUgvY5EG-16" target="fPAqoZodzVnTv5eMYKu1-1">
          <mxGeometry width="50" height="50" relative="1" as="geometry">
            <mxPoint x="1310" y="1610" as="sourcePoint" />
            <mxPoint x="1360" y="1560" as="targetPoint" />
          </mxGeometry>
        </mxCell>
        <mxCell id="fPAqoZodzVnTv5eMYKu1-3" value="" style="endArrow=classic;html=1;rounded=0;exitX=0.5;exitY=1;exitDx=0;exitDy=0;entryX=0.5;entryY=0;entryDx=0;entryDy=0;" edge="1" parent="1" source="fPAqoZodzVnTv5eMYKu1-1" target="gMm3dsdUHFEkHUgvY5EG-18">
          <mxGeometry width="50" height="50" relative="1" as="geometry">
            <mxPoint x="1400" y="1630" as="sourcePoint" />
            <mxPoint x="1450" y="1580" as="targetPoint" />
          </mxGeometry>
        </mxCell>
        <mxCell id="fPAqoZodzVnTv5eMYKu1-4" value="&lt;div&gt;Output :&lt;/div&gt;&lt;div&gt;Total Konser&lt;/div&gt;&lt;div&gt;Total Tiket Terjual&lt;/div&gt;&lt;div&gt;Total Pendapatan&lt;/div&gt;" style="shape=parallelogram;perimeter=parallelogramPerimeter;whiteSpace=wrap;html=1;fixedSize=1;" vertex="1" parent="1">
          <mxGeometry x="1520" y="2070" width="140" height="70" as="geometry" />
        </mxCell>
        <mxCell id="fPAqoZodzVnTv5eMYKu1-6" value="" style="endArrow=none;html=1;rounded=0;entryX=0.5;entryY=1;entryDx=0;entryDy=0;" edge="1" parent="1" target="fPAqoZodzVnTv5eMYKu1-4">
          <mxGeometry width="50" height="50" relative="1" as="geometry">
            <mxPoint x="1420" y="2220" as="sourcePoint" />
            <mxPoint x="1540" y="2090" as="targetPoint" />
            <Array as="points">
              <mxPoint x="1590" y="2220" />
            </Array>
          </mxGeometry>
        </mxCell>
        <mxCell id="fPAqoZodzVnTv5eMYKu1-8" value="" style="edgeStyle=orthogonalEdgeStyle;rounded=0;orthogonalLoop=1;jettySize=auto;html=1;" edge="1" parent="1" source="fPAqoZodzVnTv5eMYKu1-7" target="PiIeFLG2h4lBq93euPG2-81">
          <mxGeometry relative="1" as="geometry" />
        </mxCell>
        <mxCell id="fPAqoZodzVnTv5eMYKu1-7" value="Opsi = 6" style="rhombus;whiteSpace=wrap;html=1;" vertex="1" parent="1">
          <mxGeometry x="1680" y="1990" width="80" height="80" as="geometry" />
        </mxCell>
      </root>
    </mxGraphModel>
  </diagram>
</mxfile>
